<svg width="1912" height="381" viewBox="0 0 1912 381" xmlns="http://www.w3.org/2000/svg">
    <g fill-rule="nonzero" fill="none">
        <path fill="#FFF" d="M1079.416 289.2h8.4v56.1h31.6v7.7h-40zM1164.816 289.2h9.2l23.1 63.1h-9.2l-6.9-19.2h-24.6l-6.9 19.2h-8.5l23.8-63.1zm13.8 37.7-9.2-27.7-10 27.7h19.2zM1222.516 289.2h27.7c6.2-.8 12.3 1.5 16.2 6.9 1.5 2.3 3.1 6.2 3.1 9.2 0 3.8-.8 6.9-3.1 10-1.5 1.5-3.1 3.1-5.4 3.8 2.3.8 5.4 2.3 6.9 3.8 3.1 3.1 4.6 6.9 4.6 11.5 0 3.8-1.5 7.7-3.8 10.8-4.6 5.4-11.5 8.5-18.5 7.7h-26.9V289h-.8v.2zm24.6 26.9c3.1 0 6.2 0 8.5-1.5 3.1-1.5 5.4-4.6 4.6-8.5 0-3.8-1.5-6.9-5.4-8.5-3.1-.8-5.4-1.5-8.5-1.5h-15.4v19.2l16.2.8zm2.3 29.2c4.6.8 8.5-1.5 11.5-4.6 1.5-2.3 2.3-4.6 2.3-6.9 0-3.8-2.3-7.7-6.2-9.2-3.1-.8-6.2-1.5-8.5-1.5h-17.7v22.3h18.6v-.1zM1304.816 332.3c0 3.1.8 6.2 2.3 8.5 3.1 4.6 9.2 6.9 14.6 6.2 3.1 0 5.4-.8 8.5-1.5 4.6-.8 7.7-4.6 7.7-9.2 0-3.1-.8-6.2-3.1-7.7-3.1-1.5-6.2-3.1-10-3.8l-8.5-1.5c-3.8-.8-7.7-2.3-11.5-3.8-3.8-2.3-6.2-6.9-6.2-11.5 0-5.4 1.5-10 5.4-13.8 4.6-3.8 10-6.2 16.2-5.4 6.2 0 11.5 1.5 16.2 4.6 4.6 3.8 6.9 9.2 6.9 15.4h-7.7c0-3.1-.8-5.4-3.1-7.7-3.1-3.8-7.7-5.4-12.3-5.4-3.8 0-7.7.8-10.8 3.1-2.3 2.3-3.1 4.6-3.1 7.7 0 3.1 1.5 5.4 3.8 6.9 3.8 1.5 7.7 3.1 10.8 3.1l8.5 2.3c3.1.8 6.9 2.3 9.2 3.8 3.8 3.1 6.2 7.7 6.2 13.1.8 6.2-2.3 12.3-7.7 15.4-5.4 3.1-11.5 4.6-17.7 4.6-6.9 0-13.1-1.5-17.7-6.2-4.6-3.8-6.9-10-6.2-16.2l9.3-1z"/>
        <path fill="#7FC21E" d="m203.916 224.5-56.9-62.3 56.9-62.3 10.8 10-47.7 52.3 47.7 52.3zM247.816 224.5l-10.8-10 48.5-52.3-48.5-52.3 10.8-10 57.7 62.3z"/>
        <path d="M.016 163c-.8-36.2 27.7-66.2 63.1-66.9h2.3c19.2-.8 36.9 6.9 50 20.8l-10 10.8c-10.8-11.5-25.4-17.7-40.8-17.7-27.7 0-50 23.1-50 51.5v1.5c-1.5 27.7 20 51.5 48.5 53.1h1.5c16.2 0 30.8-6.9 41.5-18.5l9.2 10c-12.9 14.6-31.4 23.1-51.4 22.3-35.4 0-63.9-29.2-63.9-64.6V163zM351.616 98.4h44.6c40.8 0 68.5 27.7 68.5 63.9s-27.7 64.6-68.5 64.6h-44.6V98.4zm13.9 13.1V213h30c32.3 0 53.1-22.3 53.1-50.8 0-28.5-20.8-50.8-53.1-50.8h-30v.1zM513.916 98.4h93.1v13.1h-79.2v43.8h70v13.1h-70v45.4h80v13.1h-93.9zM728.616 98.4h54.6c12.3-.8 24.6 3.1 33.8 11.5 5.4 5.4 8.5 13.1 8.5 20.8 0 13.1-7.7 25.4-20.8 30 15.4 4.6 27.7 13.1 27.7 30.8 0 22.3-18.5 35.4-46.9 35.4h-56.9V98.4zm82.3 33.8c0-13.1-10-20.8-28.5-20.8h-39.2V156h38.5c17.7-.7 29.2-8.4 29.2-23.8zm-26.9 36.2h-40.8v45.4h43.1c19.2 0 31.5-8.5 31.5-23.1 0-14.6-11.5-22.3-33.8-22.3zM880.116 98.4h55.4c13.1-.8 26.9 3.8 36.9 13.1 6.9 6.9 10 16.2 10 25.4 0 21.5-14.6 33.8-35.4 37.7l39.2 52.3h-17.7l-37.7-50h-36.9v50h-14.5l.7-128.5zm53.9 65.4c19.2 0 33.1-10 33.1-26.2s-12.3-25.4-33.1-25.4h-40v52.3l40-.7zM1031.716 98.4h93.1v13.1h-78.5v43.8h70v13.1h-70v45.4h79.2v13.1h-94.6V98.4zM1163.216 98.4h16.2l36.9 106.9 35.4-107.7h12.3l35.4 107.7 36.9-106.9h15.4l-46.1 129.2h-13.1l-35.4-104.6-35.4 104.6h-12.3zM1597.116 104.5l-8.5-9.2c2.3-1.5 20-20 3.1-39.2-14.6-16.2-12.3-41.5 3.8-55.4l8.5 8.5-3.8-4.6 3.8 4.6c-2.3 2.3-20 20-3.1 39.2 14.7 16.9 13.1 41.5-3.8 56.1zM1649.416 113.8l-8.5-9.2c2.3-2.3 20-20 3.1-39.2-14.6-16.2-12.3-41.5 3.8-55.4l8.5 8.5-3.8-4.6 3.8 4.6c-2.3 2.3-20 20-3.1 39.2 14.7 16.8 12.4 41.5-3.8 56.1z" fill="#FFF"/>
        <path d="M1723.316 189.2v-8.5c-11.5 2.3-23.1 3.8-35.4 3.8-20.8 0-41.5-3.1-61.5-8.5-39.2-10-62.3-15.4-77.7-15.4-7.7-.8-16.2 1.5-22.3 6.9-3.1 2.3-4.6 6.2-4.6 10.8v12.4c0 10-3.1 20-8.5 28.5-2.3 4.6-2.3 9.2.8 13.8 5.4 8.5 8.5 18.5 9.2 28.5v64.6c0 5.4.8 11.5 2.3 16.9 2.3 4.6 6.9 7.7 12.3 7.7h170c5.4 0 10-2.3 12.3-6.9 2.3-6.2 3.8-12.3 3.8-19.2V260c0-10 3.1-20 8.5-28.5 2.3-3.8 3.1-9.2.8-13.8-6.9-8.5-10-18.5-10-28.5z" fill="#7FC21F"/>
        <path d="M1524.816 79.9c-16.9 10.8-26.9 30-25.4 50v61.5c0 13.1-14.6 28.5-20 33.8 5.4 4.6 20.8 20 20.8 33.1v61.5c0 27.7 9.2 40.8 25.4 50.8l-4.6 10c-29.2-16.9-35.4-30-35.4-80.8v-39.1c0-13.8-16.9-28.5-24.6-35.4 7.7-6.2 23.8-22.3 23.8-36.2v-40.8c0-48.5 6.9-63.1 35.4-79.2l4.6 10.8zM1725.616 69.2c28.5 16.9 35.4 30.8 35.4 79.2v40c0 13.8 16.2 30 23.8 36.2-7.7 6.9-24.6 21.5-24.6 35.4v39.2c0 50.8-6.2 64.6-35.4 80.8l-4.6-10c15.4-10 25.4-23.1 25.4-50.8v-61.5c0-13.8 15.4-28.5 20.8-33.8-5.4-5.4-20-20-20-33.8v-60c0-30-13.1-41.5-25.4-50l4.6-10.9zM1819.516 133l92.3 92.3-92.3 92.3-10-10 83-82.3-83-82.3z" fill="#FFF"/>
    </g>
</svg>
